<svg width="177" height="62" viewBox="0 0 177 62" fill="none" xmlns="http://www.w3.org/2000/svg">
<path d="M10.6 50V16.4H16.456V50H10.6ZM22.9581 50L29.4861 16.4H34.3341L42.5181 37.928L50.7021 16.4H55.5501L62.0781 50H56.1021L52.0701 29.216L44.5101 49.232H40.5021L32.9421 29.216L28.9341 50H22.9581ZM75.8463 50.624C73.6383 50.624 71.6223 50.056 69.7983 48.92C67.9903 47.784 66.5423 46.256 65.4543 44.336C64.3823 42.416 63.8463 40.296 63.8463 37.976C63.8463 36.232 64.1583 34.6 64.7823 33.08C65.4063 31.544 66.2623 30.2 67.3503 29.048C68.4543 27.88 69.7343 26.968 71.1903 26.312C72.6463 25.656 74.1983 25.328 75.8463 25.328C77.7183 25.328 79.4303 25.728 80.9823 26.528C82.5503 27.312 83.8783 28.392 84.9663 29.768C86.0543 31.144 86.8463 32.712 87.3423 34.472C87.8383 36.232 87.9503 38.072 87.6783 39.992H70.1343C70.3583 40.888 70.7263 41.696 71.2383 42.416C71.7503 43.12 72.3983 43.688 73.1823 44.12C73.9663 44.536 74.8543 44.752 75.8463 44.768C76.8703 44.784 77.7983 44.544 78.6303 44.048C79.4783 43.536 80.1823 42.848 80.7423 41.984L86.7183 43.376C85.7423 45.504 84.2863 47.248 82.3503 48.608C80.4143 49.952 78.2463 50.624 75.8463 50.624ZM69.9423 35.6H81.7503C81.5743 34.64 81.1983 33.776 80.6223 33.008C80.0623 32.224 79.3663 31.6 78.5343 31.136C77.7023 30.672 76.8063 30.44 75.8463 30.44C74.8863 30.44 73.9983 30.672 73.1823 31.136C72.3663 31.584 71.6703 32.2 71.0943 32.984C70.5343 33.752 70.1503 34.624 69.9423 35.6ZM102.237 50.624C100.029 50.624 98.0129 50.056 96.1889 48.92C94.3809 47.784 92.9329 46.256 91.8449 44.336C90.7729 42.416 90.2369 40.296 90.2369 37.976C90.2369 36.232 90.5489 34.6 91.1729 33.08C91.7969 31.544 92.6529 30.2 93.7409 29.048C94.8449 27.88 96.1249 26.968 97.5809 26.312C99.0369 25.656 100.589 25.328 102.237 25.328C104.109 25.328 105.821 25.728 107.373 26.528C108.941 27.312 110.269 28.392 111.357 29.768C112.445 31.144 113.237 32.712 113.733 34.472C114.229 36.232 114.341 38.072 114.069 39.992H96.5249C96.7489 40.888 97.1169 41.696 97.6289 42.416C98.1409 43.12 98.7889 43.688 99.5729 44.12C100.357 44.536 101.245 44.752 102.237 44.768C103.261 44.784 104.189 44.544 105.021 44.048C105.869 43.536 106.573 42.848 107.133 41.984L113.109 43.376C112.133 45.504 110.677 47.248 108.741 48.608C106.805 49.952 104.637 50.624 102.237 50.624ZM96.3329 35.6H108.141C107.965 34.64 107.589 33.776 107.013 33.008C106.453 32.224 105.757 31.6 104.925 31.136C104.093 30.672 103.197 30.44 102.237 30.44C101.277 30.44 100.389 30.672 99.5729 31.136C98.7569 31.584 98.0609 32.2 97.4849 32.984C96.9249 33.752 96.5409 34.624 96.3329 35.6ZM130.838 31.856H126.182V50H120.326V31.856H116.774V26H120.326V18.464H126.182V26H130.838V31.856ZM145.174 50.624C142.966 50.624 140.95 50.056 139.126 48.92C137.318 47.784 135.87 46.256 134.782 44.336C133.71 42.416 133.174 40.296 133.174 37.976C133.174 36.232 133.486 34.6 134.11 33.08C134.734 31.544 135.59 30.2 136.678 29.048C137.782 27.88 139.062 26.968 140.518 26.312C141.974 25.656 143.526 25.328 145.174 25.328C147.046 25.328 148.758 25.728 150.31 26.528C151.878 27.312 153.206 28.392 154.294 29.768C155.382 31.144 156.174 32.712 156.67 34.472C157.166 36.232 157.278 38.072 157.006 39.992H139.462C139.686 40.888 140.054 41.696 140.566 42.416C141.078 43.12 141.726 43.688 142.51 44.12C143.294 44.536 144.182 44.752 145.174 44.768C146.198 44.784 147.126 44.544 147.958 44.048C148.806 43.536 149.51 42.848 150.07 41.984L156.046 43.376C155.07 45.504 153.614 47.248 151.678 48.608C149.742 49.952 147.574 50.624 145.174 50.624ZM139.27 35.6H151.078C150.902 34.64 150.526 33.776 149.95 33.008C149.39 32.224 148.694 31.6 147.862 31.136C147.03 30.672 146.134 30.44 145.174 30.44C144.214 30.44 143.326 30.672 142.51 31.136C141.694 31.584 140.998 32.2 140.422 32.984C139.862 33.752 139.478 34.624 139.27 35.6ZM160.935 50L160.911 26H166.767L166.791 28.136C167.607 27.272 168.583 26.592 169.719 26.096C170.855 25.584 172.079 25.328 173.391 25.328C174.271 25.328 175.151 25.456 176.031 25.712L173.727 31.616C173.119 31.376 172.511 31.256 171.903 31.256C170.959 31.256 170.095 31.488 169.311 31.952C168.543 32.4 167.927 33.016 167.463 33.8C167.015 34.568 166.791 35.424 166.791 36.368V50H160.935Z" fill="white"/>
<path d="M2.45455 8.07226L0 5.60839C7.46182 -1.86946 19.5505 -1.86946 27 5.60839L24.5455 8.07226C18.4459 1.94954 8.55409 1.94954 2.45455 8.07226Z" fill="white"/>
<path d="M7.36364 13L4.90909 10.5361C9.65864 5.78086 17.3536 5.78086 22.0909 10.5361L19.6364 13C18.0084 11.3672 15.8013 10.4501 13.5 10.4501C11.1987 10.4501 8.99157 11.3672 7.36364 13Z" fill="white"/>
</svg>
