<svg width="80" height="37" viewBox="0 0 80 37" fill="none" xmlns="http://www.w3.org/2000/svg">
<path d="M5.02454 28.3246V13.0825H8.11228V19.6228H7.83157C7.83157 18.0696 8.0374 16.7784 8.44912 15.7491C8.86077 14.7012 9.46898 13.9152 10.2737 13.3912C11.097 12.8672 12.1169 12.6053 13.3333 12.6053H13.5018C15.3169 12.6053 16.6923 13.1948 17.6281 14.3737C18.5637 15.5339 19.0316 17.2743 19.0316 19.5948V28.3246H15.1298V19.2579C15.1298 18.3223 14.8585 17.5644 14.3158 16.9842C13.7918 16.4041 13.062 16.1141 12.1263 16.1141C11.1719 16.1141 10.3953 16.4135 9.79649 17.0123C9.21635 17.5924 8.92631 18.3784 8.92631 19.3702V28.3246H5.02454Z" fill="white"/>
<path d="M30.0474 28.8579C28.7374 28.8579 27.5866 28.6333 26.5948 28.1842C25.6216 27.7351 24.8076 27.1363 24.1527 26.3877C23.5164 25.6205 23.0299 24.769 22.693 23.8333C22.3748 22.8977 22.2158 21.9433 22.2158 20.9702V20.4369C22.2158 19.4263 22.3748 18.4532 22.693 17.5176C23.0299 16.5632 23.5164 15.7211 24.1527 14.9912C24.8076 14.2427 25.6123 13.6532 26.5667 13.2228C27.5211 12.7737 28.6252 12.5491 29.879 12.5491C31.5257 12.5491 32.9012 12.914 34.0053 13.6439C35.1281 14.355 35.9702 15.3 36.5316 16.479C37.093 17.6392 37.3737 18.893 37.3737 20.2404V21.6439H23.872V19.2579H34.9316L33.7246 20.4369C33.7246 19.4637 33.5842 18.631 33.3035 17.9386C33.0228 17.2462 32.5924 16.7129 32.0123 16.3386C31.4509 15.9644 30.7398 15.7772 29.879 15.7772C29.0181 15.7772 28.2883 15.9737 27.6895 16.3667C27.0906 16.7597 26.6322 17.3304 26.3141 18.079C26.0146 18.8088 25.8649 19.6883 25.8649 20.7176C25.8649 21.6719 26.0146 22.5234 26.3141 23.2719C26.6134 24.0018 27.072 24.5819 27.6895 25.0123C28.307 25.424 29.093 25.6298 30.0474 25.6298C31.0018 25.6298 31.7783 25.4427 32.3772 25.0684C32.976 24.6754 33.3597 24.1983 33.5281 23.6369H37.1211C36.8965 24.6848 36.4661 25.6018 35.8299 26.3877C35.1936 27.1737 34.3795 27.7819 33.3878 28.2123C32.4146 28.6427 31.3012 28.8579 30.0474 28.8579Z" fill="white"/>
<path d="M47.2577 28.5211C45.8542 28.5211 44.6939 28.3433 43.777 27.9877C42.8787 27.6135 42.2051 26.9959 41.7559 26.1351C41.3068 25.2556 41.0822 24.0766 41.0822 22.5982L41.1103 8.78772H44.7594L44.7314 22.8509C44.7314 23.5994 44.9279 24.1795 45.3208 24.5912C45.7325 24.9842 46.3126 25.1807 47.0612 25.1807H49.4472V28.5211H47.2577ZM38.6682 15.9456V13.0825H49.4472V15.9456H38.6682Z" fill="white"/>
<path d="M59.4607 28.8579C58.1508 28.8579 57 28.6333 56.0081 28.1842C55.035 27.7351 54.221 27.1363 53.566 26.3877C52.9298 25.6205 52.4432 24.769 52.1063 23.8333C51.7882 22.8977 51.6292 21.9433 51.6292 20.9702V20.4369C51.6292 19.4263 51.7882 18.4532 52.1063 17.5176C52.4432 16.5632 52.9298 15.7211 53.566 14.9912C54.221 14.2427 55.0256 13.6532 55.98 13.2228C56.9344 12.7737 58.0386 12.5491 59.2923 12.5491C60.9391 12.5491 62.3146 12.914 63.4186 13.6439C64.5414 14.355 65.3835 15.3 65.9449 16.479C66.5063 17.6392 66.787 18.893 66.787 20.2404V21.6439H53.2853V19.2579H64.3449L63.1379 20.4369C63.1379 19.4637 62.9976 18.631 62.7169 17.9386C62.4362 17.2462 62.0058 16.7129 61.4256 16.3386C60.8642 15.9644 60.1531 15.7772 59.2923 15.7772C58.4315 15.7772 57.7017 15.9737 57.1028 16.3667C56.504 16.7597 56.0456 17.3304 55.7274 18.079C55.428 18.8088 55.2783 19.6883 55.2783 20.7176C55.2783 21.6719 55.428 22.5234 55.7274 23.2719C56.0268 24.0018 56.4853 24.5819 57.1028 25.0123C57.7204 25.424 58.5063 25.6298 59.4607 25.6298C60.4151 25.6298 61.1917 25.4427 61.7906 25.0684C62.3894 24.6754 62.773 24.1983 62.9414 23.6369H66.5344C66.3099 24.6848 65.8795 25.6018 65.2432 26.3877C64.607 27.1737 63.7929 27.7819 62.8011 28.2123C61.828 28.6427 60.7146 28.8579 59.4607 28.8579Z" fill="white"/>
<path d="M70.1754 21.6579L70.0464 13.0825H73.134V19.5386H73.0498C73.0498 17.3491 73.5178 15.693 74.4533 14.5702C75.3894 13.4474 76.7648 12.886 78.5796 12.886H79.141V16.2825H78.0743C76.7648 16.2825 75.7445 16.6381 75.0147 17.3491C74.3038 18.0416 73.948 19.0521 73.948 20.3807V22.7105H72.9824V23.4123H72.2806V22.7105H71.5789V23.4123H70.8771V24.8158H70.1754V21.6579Z" fill="white"/>
<path d="M1.40356 8.35819C2.79062 7.20285 4.53873 6.57019 6.34391 6.57019C8.14911 6.57019 9.89718 7.20285 11.2843 8.35819" stroke="#FCA311" stroke-width="1.4" stroke-linecap="square" stroke-linejoin="round"/>
<path d="M3.88074 10.8564C4.59316 10.3502 5.44542 10.0783 6.31933 10.0783C7.19328 10.0783 8.04549 10.3502 8.75791 10.8564" stroke="#FCA311" stroke-opacity="0.72" stroke-width="1.4" stroke-linecap="square" stroke-linejoin="round"/>
<path d="M70.8772 25.5175H70.1754V26.2193H70.8772V25.5175Z" fill="white" fill-opacity="0.64"/>
<path d="M70.1754 26.9211H70.8772V28.3246H70.1754V26.9211Z" fill="white" fill-opacity="0.32"/>
<path d="M72.9824 27.6228H73.6842V28.6754H72.9824V27.6228Z" fill="white" fill-opacity="0.24"/>
<path d="M72.9824 25.5175C73.2568 25.5175 73.4098 25.5175 73.6842 25.5175V26.2193H72.9824V25.5175Z" fill="white" fill-opacity="0.56"/>
<path d="M71.579 25.8684C71.8534 25.8684 72.0063 25.8684 72.2807 25.8684V27.9737H71.579V25.8684Z" fill="white" fill-opacity="0.48"/>
<path d="M71.579 24.4649C71.8534 24.4649 72.0063 24.4649 72.2807 24.4649V25.1667H71.579V24.4649Z" fill="white" fill-opacity="0.8"/>
<path d="M73.2211 23.5877C73.4955 23.5877 73.6491 23.5877 73.9228 23.5877V23.9386V24.2895H73.2211V23.5877Z" fill="white" fill-opacity="0.88"/>
</svg>
