<svg width="129" height="58" viewBox="0 0 129 58" fill="none" xmlns="http://www.w3.org/2000/svg">
<path d="M39.864 30.832V46H34.008V32.368C34.008 31.424 33.776 30.568 33.312 29.8C32.848 29.016 32.224 28.4 31.44 27.952C30.672 27.488 29.816 27.256 28.872 27.256C27.928 27.256 27.064 27.488 26.28 27.952C25.512 28.4 24.896 29.016 24.432 29.8C23.984 30.568 23.76 31.424 23.76 32.368V46H17.904L17.88 22H23.736L23.76 24.136C24.576 23.272 25.552 22.592 26.688 22.096C27.824 21.584 29.048 21.328 30.36 21.328C32.104 21.328 33.696 21.76 35.136 22.624C36.576 23.472 37.72 24.616 38.568 26.056C39.432 27.48 39.864 29.072 39.864 30.832ZM54.7368 46.624C52.5288 46.624 50.5128 46.056 48.6888 44.92C46.8808 43.784 45.4328 42.256 44.3448 40.336C43.2728 38.416 42.7368 36.296 42.7368 33.976C42.7368 32.232 43.0488 30.6 43.6728 29.08C44.2968 27.544 45.1528 26.2 46.2408 25.048C47.3448 23.88 48.6248 22.968 50.0808 22.312C51.5368 21.656 53.0888 21.328 54.7368 21.328C56.6088 21.328 58.3208 21.728 59.8728 22.528C61.4408 23.312 62.7688 24.392 63.8568 25.768C64.9448 27.144 65.7368 28.712 66.2328 30.472C66.7288 32.232 66.8408 34.072 66.5688 35.992H49.0248C49.2488 36.888 49.6168 37.696 50.1288 38.416C50.6408 39.12 51.2888 39.688 52.0728 40.12C52.8568 40.536 53.7448 40.752 54.7368 40.768C55.7608 40.784 56.6888 40.544 57.5208 40.048C58.3688 39.536 59.0728 38.848 59.6328 37.984L65.6088 39.376C64.6328 41.504 63.1768 43.248 61.2408 44.608C59.3048 45.952 57.1368 46.624 54.7368 46.624ZM48.8328 31.6H60.6408C60.4648 30.64 60.0888 29.776 59.5128 29.008C58.9528 28.224 58.2568 27.6 57.4248 27.136C56.5928 26.672 55.6968 26.44 54.7368 26.44C53.7768 26.44 52.8888 26.672 52.0728 27.136C51.2568 27.584 50.5608 28.2 49.9848 28.984C49.4248 29.752 49.0408 30.624 48.8328 31.6ZM83.3377 27.856H78.6817V46H72.8257V27.856H69.2737V22H72.8257V14.464H78.6817V22H83.3377V27.856ZM97.6743 46.624C95.4663 46.624 93.4503 46.056 91.6263 44.92C89.8183 43.784 88.3703 42.256 87.2823 40.336C86.2103 38.416 85.6743 36.296 85.6743 33.976C85.6743 32.232 85.9863 30.6 86.6103 29.08C87.2343 27.544 88.0903 26.2 89.1783 25.048C90.2823 23.88 91.5623 22.968 93.0183 22.312C94.4743 21.656 96.0263 21.328 97.6743 21.328C99.5463 21.328 101.258 21.728 102.81 22.528C104.378 23.312 105.706 24.392 106.794 25.768C107.882 27.144 108.674 28.712 109.17 30.472C109.666 32.232 109.778 34.072 109.506 35.992H91.9623C92.1863 36.888 92.5543 37.696 93.0663 38.416C93.5783 39.12 94.2263 39.688 95.0103 40.12C95.7943 40.536 96.6823 40.752 97.6743 40.768C98.6983 40.784 99.6263 40.544 100.458 40.048C101.306 39.536 102.01 38.848 102.57 37.984L108.546 39.376C107.57 41.504 106.114 43.248 104.178 44.608C102.242 45.952 100.074 46.624 97.6743 46.624ZM91.7703 31.6H103.578C103.402 30.64 103.026 29.776 102.45 29.008C101.89 28.224 101.194 27.6 100.362 27.136C99.5303 26.672 98.6343 26.44 97.6743 26.44C96.7143 26.44 95.8263 26.672 95.0103 27.136C94.1943 27.584 93.4983 28.2 92.9223 28.984C92.3623 29.752 91.9783 30.624 91.7703 31.6ZM113.435 46L113.411 22H119.267L119.291 24.136C120.107 23.272 121.083 22.592 122.219 22.096C123.355 21.584 124.579 21.328 125.891 21.328C126.771 21.328 127.651 21.456 128.531 21.712L126.227 27.616C125.619 27.376 125.011 27.256 124.403 27.256C123.459 27.256 122.595 27.488 121.811 27.952C121.043 28.4 120.427 29.016 119.963 29.8C119.515 30.568 119.291 31.424 119.291 32.368V46H113.435Z" fill="white"/>
<path d="M5.48045 19.2223L2.24489 17.9469C6.08968 8.10746 17.1676 3.26869 26.9876 7.13949L25.7245 10.3799C17.6841 7.21052 8.61928 11.17 5.48045 19.2223Z" fill="white"/>
<path d="M11.9516 21.7731L8.71601 20.4977C11.1651 14.2388 18.2167 11.1587 24.4613 13.6202L23.1982 16.8606C21.0529 16.016 18.6631 16.0589 16.5542 16.9801C14.4453 17.9012 12.7898 19.6252 11.9516 21.7731Z" fill="white"/>
</svg>
